<?xml version="1.0" encoding="UTF-8" standalone="no"?>
<!DOCTYPE svg PUBLIC "-//W3C//DTD SVG 1.1//EN"
 "http://www.w3.org/Graphics/SVG/1.1/DTD/svg11.dtd">
<!-- Generated by graphviz version 2.40.1 (20161225.0304)
 -->
<!-- Title: cpp2html Pages: 1 -->
<svg width="340pt" height="109pt"
 viewBox="0.00 0.00 339.92 109.00" xmlns="http://www.w3.org/2000/svg" xmlns:xlink="http://www.w3.org/1999/xlink">
<g id="graph0" class="graph" transform="scale(1 1) rotate(0) translate(4 105)">
<title>cpp2html</title>
<!-- readWS -->
<g id="node1" class="node">
<title>readWS</title>
<ellipse fill="#7ccd7c" stroke="#000000" cx="82.9619" cy="-50.8701" rx="45.9239" ry="26.7407"/>
<text text-anchor="middle" x="82.9619" y="-54.6701" font-family="Times,serif" font-size="14.00" fill="#000000">Just read</text>
<text text-anchor="middle" x="82.9619" y="-39.6701" font-family="Times,serif" font-size="14.00" fill="#000000">WS</text>
</g>
<!-- readWS&#45;&gt;readWS -->
<g id="edge1" class="edge">
<title>readWS&#45;&gt;readWS</title>
<path fill="none" stroke="#000000" d="M82.9619,-77.766C82.9619,-84.0755 82.9619,-89 82.9619,-89 82.9619,-89 19,-89 19,-89 19,-89 19,0 19,0 19,0 82.9619,0 82.9619,0 82.9619,0 82.9619,-13.9455 82.9619,-13.9455"/>
<polygon fill="#000000" stroke="#000000" points="79.462,-13.9454 82.9619,-23.9455 86.462,-13.9455 79.462,-13.9454"/>
<text text-anchor="middle" x="9.5" y="-46.5443" font-family="Times,serif" font-size="12.00" fill="#000000">WS</text>
</g>
<!-- readNon -->
<g id="node2" class="node">
<title>readNon</title>
<ellipse fill="#7ccd7c" stroke="#000000" cx="227.9619" cy="-50.8701" rx="45.9239" ry="26.7407"/>
<text text-anchor="middle" x="227.9619" y="-54.6701" font-family="Times,serif" font-size="14.00" fill="#000000">Just read</text>
<text text-anchor="middle" x="227.9619" y="-39.6701" font-family="Times,serif" font-size="14.00" fill="#000000">non&#45;WS</text>
</g>
<!-- readWS&#45;&gt;readNon -->
<g id="edge2" class="edge">
<title>readWS&#45;&gt;readNon</title>
<path fill="none" stroke="#000000" d="M126.8602,-59C126.8602,-59 173.7125,-59 173.7125,-59"/>
<polygon fill="#000000" stroke="#000000" points="173.7125,-62.5001 183.7125,-59 173.7124,-55.5001 173.7125,-62.5001"/>
<text text-anchor="middle" x="160.2863" y="-49.4" font-family="Times,serif" font-size="12.00" fill="#000000">non&#45;WS</text>
</g>
<!-- readNon&#45;&gt;readWS -->
<g id="edge4" class="edge">
<title>readNon&#45;&gt;readWS</title>
<path fill="none" stroke="#000000" d="M184.8497,-41C184.8497,-41 135.908,-41 135.908,-41"/>
<polygon fill="#000000" stroke="#000000" points="135.9081,-37.5001 125.908,-41 135.908,-44.5001 135.9081,-37.5001"/>
<text text-anchor="middle" x="150.8789" y="-31.4" font-family="Times,serif" font-size="12.00" fill="#000000">WS</text>
</g>
<!-- readNon&#45;&gt;readNon -->
<g id="edge3" class="edge">
<title>readNon&#45;&gt;readNon</title>
<path fill="none" stroke="#000000" d="M227.9619,-77.9891C227.9619,-89.8008 227.9619,-101 227.9619,-101 227.9619,-101 291.9239,-101 291.9239,-101 291.9239,-101 291.9239,-13 291.9239,-13 291.9239,-13 227.9619,-13 227.9619,-13 227.9619,-13 227.9619,-14.0751 227.9619,-14.0751"/>
<polygon fill="#000000" stroke="#000000" points="224.462,-13.7507 227.9619,-23.7507 231.462,-13.7508 224.462,-13.7507"/>
<text text-anchor="middle" x="311.9239" y="-71.3679" font-family="Times,serif" font-size="12.00" fill="#000000">non&#45;WS</text>
</g>
</g>
</svg>
